<svg width="1600" height="900" viewBox="0 0 1600 900" fill="none" xmlns="http://www.w3.org/2000/svg">
  <defs>
    <linearGradient id="bg" x1="84" y1="58" x2="1524" y2="842" gradientUnits="userSpaceOnUse">
      <stop stop-color="#030712"/>
      <stop offset="0.52" stop-color="#08111F"/>
      <stop offset="1" stop-color="#111827"/>
    </linearGradient>
    <linearGradient id="purpleCyan" x1="0" y1="0" x2="1" y2="1">
      <stop stop-color="#8B5CF6"/>
      <stop offset="1" stop-color="#22D3EE"/>
    </linearGradient>
    <linearGradient id="cyanGold" x1="0" y1="0" x2="1" y2="0">
      <stop stop-color="#22D3EE"/>
      <stop offset="1" stop-color="#F59E0B"/>
    </linearGradient>
    <radialGradient id="glowLeft" cx="0" cy="0" r="1" gradientUnits="userSpaceOnUse" gradientTransform="translate(220 150) rotate(22) scale(420 260)">
      <stop stop-color="#7C3AED" stop-opacity="0.34"/>
      <stop offset="1" stop-color="#7C3AED" stop-opacity="0"/>
    </radialGradient>
    <radialGradient id="glowRight" cx="0" cy="0" r="1" gradientUnits="userSpaceOnUse" gradientTransform="translate(1320 740) rotate(180) scale(420 260)">
      <stop stop-color="#06B6D4" stop-opacity="0.28"/>
      <stop offset="1" stop-color="#06B6D4" stop-opacity="0"/>
    </radialGradient>
    <filter id="blur"><feGaussianBlur stdDeviation="58"/></filter>
    <filter id="shadow" x="0" y="0" width="1600" height="900"><feDropShadow dx="0" dy="28" stdDeviation="40" flood-color="#000" flood-opacity="0.38"/></filter>
  </defs>

  <rect width="1600" height="900" rx="36" fill="#020617"/>
  <g filter="url(#blur)">
    <ellipse cx="220" cy="150" rx="360" ry="180" fill="url(#glowLeft)"/>
    <ellipse cx="1320" cy="740" rx="360" ry="200" fill="url(#glowRight)"/>
  </g>
  <g filter="url(#shadow)">
    <rect x="64" y="58" width="1472" height="784" rx="34" fill="url(#bg)" stroke="#1E293B"/>
  </g>

  <rect x="112" y="108" width="320" height="38" rx="19" fill="#0B1220" stroke="#334155"/>
  <circle cx="140" cy="127" r="5.5" fill="#8B5CF6"/>
  <circle cx="159" cy="127" r="5.5" fill="#22D3EE"/>
  <circle cx="178" cy="127" r="5.5" fill="#F59E0B"/>
  <text x="208" y="132" fill="#94A3B8" font-size="15" font-family="Inter,Segoe UI,Arial,sans-serif">code-generated hero from live benchmark artifacts</text>

  <text x="112" y="230" fill="#F8FAFC" font-size="78" font-weight="700" font-family="Inter,Segoe UI,Arial,sans-serif">Fractal Prompt</text>
  <text x="112" y="314" fill="url(#purpleCyan)" font-size="78" font-weight="700" font-family="Inter,Segoe UI,Arial,sans-serif">Foundry</text>
  <text x="112" y="372" fill="#D6E3F2" font-size="28" font-family="Inter,Segoe UI,Arial,sans-serif">Prompt evolution, rendered like</text>
  <text x="112" y="408" fill="#D6E3F2" font-size="28" font-family="Inter,Segoe UI,Arial,sans-serif">a measurable system.</text>
  <text x="112" y="444" fill="#8FA2BC" font-size="20" font-family="Inter,Segoe UI,Arial,sans-serif">Built from current demo + benchmark artifacts, not concept art.</text>

  <rect x="112" y="474" width="280" height="54" rx="27" fill="url(#purpleCyan)"/>
  <text x="252" y="508" text-anchor="middle" fill="#020617" font-size="18" font-weight="700" font-family="Inter,Segoe UI,Arial,sans-serif">benchmark-driven prompt DNA</text>
  <rect x="408" y="474" width="228" height="54" rx="27" fill="#0B1220" stroke="#334155"/>
  <text x="522" y="508" text-anchor="middle" fill="#E2E8F0" font-size="18" font-weight="600" font-family="Inter,Segoe UI,Arial,sans-serif">seed vs evolved diff</text>

  <g>
    <rect x="112" y="576" width="166" height="110" rx="22" fill="#0B1220" stroke="#223046"/>
    <text x="136" y="612" fill="#94A3B8" font-size="15" font-family="Inter,Segoe UI,Arial,sans-serif">avg winner score</text>
    <text x="136" y="658" fill="#F8FAFC" font-size="42" font-weight="700" font-family="JetBrains Mono,Consolas,monospace">0.923</text>
    <text x="136" y="688" fill="#67E8F9" font-size="14" font-family="Inter,Segoe UI,Arial,sans-serif">across 3 missions</text>

    <rect x="296" y="576" width="166" height="110" rx="22" fill="#0B1220" stroke="#223046"/>
    <text x="320" y="612" fill="#94A3B8" font-size="15" font-family="Inter,Segoe UI,Arial,sans-serif">delta vs seed</text>
    <text x="320" y="658" fill="#F8FAFC" font-size="42" font-weight="700" font-family="JetBrains Mono,Consolas,monospace">+0.221</text>
    <text x="320" y="688" fill="#A78BFA" font-size="14" font-family="Inter,Segoe UI,Arial,sans-serif">mean lift from evolution</text>

    <rect x="480" y="576" width="166" height="110" rx="22" fill="#0B1220" stroke="#223046"/>
    <text x="504" y="612" fill="#94A3B8" font-size="15" font-family="Inter,Segoe UI,Arial,sans-serif">beat seed rate</text>
    <text x="504" y="658" fill="#F8FAFC" font-size="42" font-weight="700" font-family="JetBrains Mono,Consolas,monospace">100%</text>
    <text x="504" y="688" fill="#FCD34D" font-size="14" font-family="Inter,Segoe UI,Arial,sans-serif">every benchmark improved</text>
  </g>

  <rect x="112" y="722" width="534" height="92" rx="24" fill="#0A1120" stroke="#223046"/>
  <text x="136" y="756" fill="#F8FAFC" font-size="20" font-weight="700" font-family="Inter,Segoe UI,Arial,sans-serif">Pressure balance from live run</text>
  
    <text x="136" y="776" fill="#94A3B8" font-size="14" font-family="Inter,Segoe UI,Arial,sans-serif">coverage</text>
    <rect x="136" y="788" width="180" height="12" rx="6" fill="#101827"/>
    <rect x="136" y="788" width="180" height="12" rx="6" fill="#22D3EE"/>
    <text x="316" y="786" text-anchor="end" fill="#E2E8F0" font-size="13" font-family="JetBrains Mono,Consolas,monospace">1.000</text>
    
  
    <text x="340" y="776" fill="#94A3B8" font-size="14" font-family="Inter,Segoe UI,Arial,sans-serif">refinement</text>
    <rect x="340" y="788" width="180" height="12" rx="6" fill="#101827"/>
    <rect x="340" y="788" width="180" height="12" rx="6" fill="#8B5CF6"/>
    <text x="520" y="786" text-anchor="end" fill="#E2E8F0" font-size="13" font-family="JetBrains Mono,Consolas,monospace">1.000</text>
    
  
    <text x="544" y="776" fill="#94A3B8" font-size="14" font-family="Inter,Segoe UI,Arial,sans-serif">novelty</text>
    <rect x="544" y="788" width="78" height="12" rx="6" fill="#101827"/>
    <rect x="544" y="788" width="30" height="12" rx="6" fill="#F59E0B"/>
    <text x="622" y="786" text-anchor="end" fill="#E2E8F0" font-size="13" font-family="JetBrains Mono,Consolas,monospace">0.394</text>
    

  <rect x="700" y="108" width="778" height="288" rx="28" fill="#0B1220" stroke="#223046"/>
  <text x="736" y="148" fill="#F8FAFC" font-size="26" font-weight="700" font-family="Inter,Segoe UI,Arial,sans-serif">Benchmark portfolio</text>
  <text x="736" y="176" fill="#8FA2BC" font-size="15" font-family="Inter,Segoe UI,Arial,sans-serif">Mission cards generated from artifacts/benchmarks/summary.json</text>
  
    <g>
      <rect x="736" y="214" width="220" height="136" rx="20" fill="#09111F" stroke="#312E81"/>
      <text x="756" y="244" fill="#E2E8F0" font-size="15" font-family="Inter,Segoe UI,Arial,sans-serif">hyperliquid-agent-loop</text>
      <text x="756" y="286" fill="#F8FAFC" font-size="34" font-weight="700" font-family="JetBrains Mono,Consolas,monospace">0.932</text>
      <text x="756" y="312" fill="#94A3B8" font-size="13" font-family="Inter,Segoe UI,Arial,sans-serif">winner: critic+architect+operator</text>
      <text x="756" y="332" fill="#67E8F9" font-size="13" font-family="Inter,Segoe UI,Arial,sans-serif">Δ +0.204 vs seed</text>
    </g>
    
  
    <g>
      <rect x="978" y="214" width="220" height="136" rx="20" fill="#09111F" stroke="#155E75"/>
      <text x="998" y="244" fill="#E2E8F0" font-size="15" font-family="Inter,Segoe UI,Arial,sans-serif">support-triage-agent</text>
      <text x="998" y="286" fill="#F8FAFC" font-size="34" font-weight="700" font-family="JetBrains Mono,Consolas,monospace">0.906</text>
      <text x="998" y="312" fill="#94A3B8" font-size="13" font-family="Inter,Segoe UI,Arial,sans-serif">winner: operator+critic+architect</text>
      <text x="998" y="332" fill="#67E8F9" font-size="13" font-family="Inter,Segoe UI,Arial,sans-serif">Δ +0.229 vs seed</text>
    </g>
    
  
    <g>
      <rect x="1220" y="214" width="220" height="136" rx="20" fill="#09111F" stroke="#92400E"/>
      <text x="1240" y="244" fill="#E2E8F0" font-size="15" font-family="Inter,Segoe UI,Arial,sans-serif">code-review-agent</text>
      <text x="1240" y="286" fill="#F8FAFC" font-size="34" font-weight="700" font-family="JetBrains Mono,Consolas,monospace">0.931</text>
      <text x="1240" y="312" fill="#94A3B8" font-size="13" font-family="Inter,Segoe UI,Arial,sans-serif">winner: critic+architect+operator</text>
      <text x="1240" y="332" fill="#67E8F9" font-size="13" font-family="Inter,Segoe UI,Arial,sans-serif">Δ +0.229 vs seed</text>
    </g>
    

  <rect x="700" y="424" width="372" height="340" rx="28" fill="#0B1220" stroke="#223046"/>
  <text x="736" y="466" fill="#F8FAFC" font-size="24" font-weight="700" font-family="Inter,Segoe UI,Arial,sans-serif">Lineage map</text>
  <text x="736" y="492" fill="#8FA2BC" font-size="15" font-family="Inter,Segoe UI,Arial,sans-serif">Hyperliquid mission winner path through rounds.</text>

  <path d="M770 548H886L930 604" stroke="url(#purpleCyan)" stroke-width="4" stroke-linecap="round"/>
  <path d="M930 626L830 676" stroke="url(#cyanGold)" stroke-width="4" stroke-linecap="round"/>
  <path d="M770 676H886L930 716" stroke="url(#purpleCyan)" stroke-width="4" stroke-linecap="round"/>

  
    <circle cx="758" cy="548" r="11" fill="#8B5CF6"/>
    <rect x="782" y="524" width="168" height="48" rx="14" fill="#0A1120" stroke="#8B5CF6"/>
    <text x="866" y="544" text-anchor="middle" fill="#F8FAFC" font-size="13" font-family="Inter,Segoe UI,Arial,sans-serif">seed-3</text>
    <text x="866" y="562" text-anchor="middle" fill="#94A3B8" font-size="12" font-family="JetBrains Mono,Consolas,monospace">critic · 0.727</text>
    
  
    <circle cx="918" cy="616" r="11" fill="#22D3EE"/>
    <rect x="942" y="592" width="168" height="48" rx="14" fill="#0A1120" stroke="#22D3EE"/>
    <text x="1026" y="612" text-anchor="middle" fill="#F8FAFC" font-size="13" font-family="Inter,Segoe UI,Arial,sans-serif">r1-hyb-2</text>
    <text x="1026" y="630" text-anchor="middle" fill="#94A3B8" font-size="12" font-family="JetBrains Mono,Consolas,monospace">critic+architect · 0.911</text>
    
  
    <circle cx="758" cy="676" r="11" fill="#F59E0B"/>
    <rect x="782" y="652" width="168" height="48" rx="14" fill="#0A1120" stroke="#F59E0B"/>
    <text x="866" y="672" text-anchor="middle" fill="#F8FAFC" font-size="13" font-family="Inter,Segoe UI,Arial,sans-serif">r2-hyb-3</text>
    <text x="866" y="690" text-anchor="middle" fill="#94A3B8" font-size="12" font-family="JetBrains Mono,Consolas,monospace">critic+operator+architect · 0.929</text>
    
  
    <circle cx="918" cy="728" r="11" fill="#38BDF8"/>
    <rect x="942" y="704" width="168" height="48" rx="14" fill="#0A1120" stroke="#38BDF8"/>
    <text x="1026" y="724" text-anchor="middle" fill="#F8FAFC" font-size="13" font-family="Inter,Segoe UI,Arial,sans-serif">r3-mut-5</text>
    <text x="1026" y="742" text-anchor="middle" fill="#94A3B8" font-size="12" font-family="JetBrains Mono,Consolas,monospace">critic+architect+operator · 0.932</text>
    

  <rect x="1106" y="424" width="372" height="340" rx="28" fill="#0B1220" stroke="#223046"/>
  <text x="1142" y="466" fill="#F8FAFC" font-size="24" font-weight="700" font-family="Inter,Segoe UI,Arial,sans-serif">Seed → evolved patch</text>
  <text x="1142" y="492" fill="#8FA2BC" font-size="15" font-family="Inter,Segoe UI,Arial,sans-serif">Less stock-art, more inspectable prompt mutation.</text>

  <rect x="1142" y="524" width="300" height="188" rx="18" fill="#07101C" stroke="#334155"/>
  <text x="1160" y="552" fill="#EF4444" font-size="14" font-family="JetBrains Mono,Consolas,monospace">- ROLE LANE: CRITIC</text>
  <text x="1160" y="578" fill="#22C55E" font-size="14" font-family="JetBrains Mono,Consolas,monospace">+ ROLE LANE: CRITIC+ARCHITECT+OPERATOR</text>
  <text x="1160" y="616" fill="#E2E8F0" font-size="14" font-family="JetBrains Mono,Consolas,monospace">+ measurable validation</text>
  <text x="1160" y="642" fill="#E2E8F0" font-size="14" font-family="JetBrains Mono,Consolas,monospace">+ failure-mode paragraph</text>
  <text x="1160" y="668" fill="#E2E8F0" font-size="14" font-family="JetBrains Mono,Consolas,monospace">+ observability + abort rules</text>
  <text x="1160" y="694" fill="#E2E8F0" font-size="14" font-family="JetBrains Mono,Consolas,monospace">+ prioritized next action</text>

  <rect x="1142" y="730" width="300" height="36" rx="12" fill="#101827" stroke="#334155"/>
  <text x="1292" y="754" text-anchor="middle" fill="#67E8F9" font-size="18" font-weight="700" font-family="JetBrains Mono,Consolas,monospace">0.727 → 0.932  |  +0.204</text>

  <rect x="112" y="816" width="1330" height="20" rx="10" fill="#09111F" stroke="#243244"/>
  <rect x="112" y="816" width="440" height="20" rx="10" fill="#8B5CF6"/>
  <rect x="552" y="816" width="440" height="20" rx="10" fill="#22D3EE"/>
  <rect x="992" y="816" width="450" height="20" rx="10" fill="#F59E0B"/>
</svg>
